<svg width="46" height="35" viewBox="0 0 46 35" fill="none" xmlns="http://www.w3.org/2000/svg">
<path d="M39.625 4.31937C35.6445 1.11625 29.3477 0.573278 29.0781 0.553746C28.6602 0.51859 28.2617 0.752965 28.0898 1.13968C28.0742 1.16312 27.9375 1.47953 27.7852 1.97172C30.418 2.41703 33.6523 3.31156 36.5781 5.12796C37.0469 5.41703 37.1914 6.03421 36.9023 6.50296C36.7109 6.81156 36.3867 6.97953 36.0508 6.97953C35.8711 6.97953 35.6875 6.92875 35.5234 6.82718C30.4922 3.70609 24.2109 3.54984 23 3.54984C21.7891 3.54984 15.5039 3.70609 10.4766 6.82718C10.0078 7.12015 9.39062 6.97562 9.10156 6.50687C8.80859 6.03421 8.95312 5.42093 9.42188 5.12796C12.3477 3.31546 15.582 2.41703 18.2148 1.97562C18.0625 1.47953 17.9258 1.16703 17.9141 1.13968C17.7383 0.752965 17.3438 0.510778 16.9219 0.553746C16.6523 0.573278 10.3555 1.11625 6.32031 4.36234C4.21484 6.31156 0 17.7022 0 27.5498C0 27.7256 0.046875 27.8936 0.132813 28.0459C3.03906 33.1553 10.9727 34.4912 12.7812 34.5498C12.7891 34.5498 12.8008 34.5498 12.8125 34.5498C13.1328 34.5498 13.4336 34.3975 13.6211 34.1397L15.4492 31.6241C10.5156 30.3506 7.99609 28.1866 7.85156 28.0577C7.4375 27.6944 7.39844 27.0616 7.76562 26.6475C8.12891 26.2334 8.76172 26.1944 9.17578 26.5577C9.23438 26.6123 13.875 30.5498 23 30.5498C32.1406 30.5498 36.7812 26.5967 36.8281 26.5577C37.2422 26.1983 37.8711 26.2334 38.2383 26.6514C38.6016 27.0655 38.5625 27.6944 38.1484 28.0577C38.0039 28.1866 35.4844 30.3506 30.5508 31.6241L32.3789 34.1397C32.5664 34.3975 32.8672 34.5498 33.1875 34.5498C33.1992 34.5498 33.2109 34.5498 33.2188 34.5498C35.0273 34.4912 42.9609 33.1553 45.8672 28.0459C45.9531 27.8936 46 27.7256 46 27.5498C46 17.7022 41.7852 6.31156 39.625 4.31937ZM16.5 23.5498C14.5664 23.5498 13 21.7608 13 19.5498C13 17.3389 14.5664 15.5498 16.5 15.5498C18.4336 15.5498 20 17.3389 20 19.5498C20 21.7608 18.4336 23.5498 16.5 23.5498ZM29.5 23.5498C27.5664 23.5498 26 21.7608 26 19.5498C26 17.3389 27.5664 15.5498 29.5 15.5498C31.4336 15.5498 33 17.3389 33 19.5498C33 21.7608 31.4336 23.5498 29.5 23.5498Z" fill="white"/>
</svg>
